# xmcd
#
# Track frame offsets:
#	150
#	9388
#	29851
#	48656
#	53125
#	87398
#	121479
#	131390
#	181110
#	184593
#	195972
#	218947
#	224109
#	262040
#	291677
#	321543
#
# Disc length: 4546 seconds
#
# Revision: 1
# Processed by: cddbd v1.5.2PL0 Copyright (c) Steve Scherf et al.
# Submitted via: audiograbber 1.83.01
#
DISCID=0311c010
DTITLE=Grateful Dead - 80-11-29 Alligator Alley Gymnasium, Gainesville FL
DYEAR=1900
DGENRE=
TTITLE0=Crowd
TTITLE1=Alabama Getaway
TTITLE2=Promised Land
TTITLE3=Crowd
TTITLE4=Candyman
TTITLE5=New Minglewood Blues
TTITLE6=Crowd
TTITLE7=Row Jimmy
TTITLE8=Crowd
TTITLE9=Mama Tried
TTITLE10=Mexicali Blues
TTITLE11=Crowd
TTITLE12=Althea
TTITLE13=Lost Sailor
TTITLE14=Saint Of Circumstance
TTITLE15=Dough Knees
EXTD=
EXTT0=
EXTT1=
EXTT2=
EXTT3=
EXTT4=
EXTT5=
EXTT6=
EXTT7=
EXTT8=
EXTT9=
EXTT10=
EXTT11=
EXTT12=
EXTT13=
EXTT14=
EXTT15=
PLAYORDER=
